<svg xmlns='http://www.w3.org/2000/svg' width="24px" height="24px" viewBox="0 0 24 24">
  <g id="bold" stroke="none" fill="none" fill-rule="evenodd">
    <path d="M12.7794246,20 L6,20 L6,4 L12.6015693,4 C15.5309503,4 17.2781168,5.51905752 17.2781168,7.99168399 C17.2781168,9.68814969 16.0959024,11.1628552 14.5475153,11.4067914 L14.5475153,11.6063756 C16.5457716,11.7616078 18,13.3582814 18,15.4206514 C18,18.2259182 16.0017437,20 12.7794246,20 Z M9.15954664,6.56133056 L9.15954664,10.6306306 L11.5344377,10.6306306 C13.2397559,10.6306306 14.1708806,9.88773389 14.1708806,8.6015246 C14.1708806,7.32640333 13.3025283,6.56133056 11.7959895,6.56133056 L9.15954664,6.56133056 Z M9.15954664,17.4386694 L11.9738448,17.4386694 C13.7942459,17.4386694 14.7776809,16.6292446 14.7776809,15.1323631 C14.7776809,13.6687457 13.7628596,12.8925849 11.9006103,12.8925849 L9.15954664,12.8925849 L9.15954664,17.4386694 Z" id="B" fill="#666666"></path>
  </g>
</svg>