<svg xmlns='http://www.w3.org/2000/svg' width="24px" height="24px" viewBox="0 0 24 24">
  <g id="italicize" stroke="none" stroke-width="1" fill="none" fill-rule="evenodd">
    <path d="M13.9034335,6.71225071 L11.8218884,17.037037 C11.7646635,17.4321007 11.7360515,17.698005 11.7360515,17.8347578 C11.7360515,18.2450163 11.8648056,18.5223165 12.1223176,18.6666667 C12.3798296,18.8110169 12.8447749,18.8983854 13.5171674,18.9287749 L13.3240343,20 L6.5,20 L6.7360515,18.9287749 C7.50858755,18.8983854 8.06294539,18.7768292 8.39914163,18.5641026 C8.73533788,18.351376 8.96781052,17.9259291 9.09656652,17.2877493 L11.1781116,6.96296296 C11.2353365,6.56789926 11.2639485,6.30199499 11.2639485,6.16524217 C11.2639485,5.7549837 11.1351944,5.47768353 10.8776824,5.33333333 C10.6201704,5.18898313 10.1552251,5.10161459 9.48283262,5.07122507 L9.67596567,4 L16.5,4 L16.2639485,5.07122507 C15.4914124,5.10161459 14.9370546,5.22317083 14.6008584,5.43589744 C14.2646621,5.64862405 14.0321895,6.07407088 13.9034335,6.71225071 Z" fill="#666666"></path>
  </g>
</svg>