<svg xmlns='http://www.w3.org/2000/svg' width="24px" height="24px" viewBox="0 0 24 24">
  <g id="unordered_list" stroke="none" fill="#666666" fill-rule="evenodd">
    <path d="M8.5 5.75h11a.5.5 0 0 1 .5.5v.5a.5.5 0 0 1-.5.5h-11a.5.5 0 0 1-.5-.5v-.5a.5.5 0 0 1 .5-.5zm0 5.5h11a.5.5 0 0 1 .5.5v.5a.5.5 0 0 1-.5.5h-11a.5.5 0 0 1-.5-.5v-.5a.5.5 0 0 1 .5-.5zm0 5.5h11a.5.5 0 0 1 .5.5v.5a.5.5 0 0 1-.5.5h-11a.5.5 0 0 1-.5-.5v-.5a.5.5 0 0 1 .5-.5zM4.5 5.5h1A.5.5 0 0 1 6 6v1a.5.5 0 0 1-.5.5h-1A.5.5 0 0 1 4 7V6a.5.5 0 0 1 .5-.5zm0 5.5h1a.5.5 0 0 1 .5.5v1a.5.5 0 0 1-.5.5h-1a.5.5 0 0 1-.5-.5v-1a.5.5 0 0 1 .5-.5zm0 5.5h1a.5.5 0 0 1 .5.5v1a.5.5 0 0 1-.5.5h-1A.5.5 0 0 1 4 18v-1a.5.5 0 0 1 .5-.5z"></path>
  </g>
</svg>