<svg xmlns='http://www.w3.org/2000/svg' width="24px" height="24px" viewBox="0 0 24 24">
  <g id="ordered_list" stroke="none" fill="#666666" fill-rule="evenodd">
    <path d="M8.5 5.5h11a.5.5 0 0 1 .5.5v.5a.5.5 0 0 1-.5.5h-11a.5.5 0 0 1-.5-.5V6a.5.5 0 0 1 .5-.5zm0 5.5h11a.5.5 0 0 1 .5.5v.5a.5.5 0 0 1-.5.5h-11A.5.5 0 0 1 8 12v-.5a.5.5 0 0 1 .5-.5zm0 5.5h11a.5.5 0 0 1 .5.5v.5a.5.5 0 0 1-.5.5h-11a.5.5 0 0 1-.5-.5V17a.5.5 0 0 1 .5-.5z"></path>
    <g id="western_arabic_numbers">
      <path id="1" d="M5.308 8.123h.738V4.6H5.31l-.911.627v.686l.864-.595h.044z"></path>
      <path id="2" d="M4 11.145v.012h.684v-.014c0-.325.234-.55.576-.55.322 0 .552.2.552.484 0 .23-.125.412-.62.896l-1.15 1.125v.515h2.541V13H5.04v-.043l.674-.643c.61-.573.818-.903.818-1.286 0-.606-.513-1.028-1.248-1.028C4.522 10 4 10.464 4 11.145z"></path>
      <path id="3" d="M4.908 17.585h.437c.396 0 .637.19.637.498 0 .3-.256.508-.625.508-.378 0-.63-.188-.651-.486H4c.032.664.564 1.099 1.35 1.099.803 0 1.384-.447 1.384-1.065 0-.464-.302-.786-.786-.84v-.044a.794.794 0 0 0 .65-.805c0-.554-.52-.95-1.243-.95-.77 0-1.265.42-1.29 1.086h.682c.02-.305.247-.498.588-.498.345 0 .564.181.564.464 0 .288-.227.484-.561.484h-.43v.549z"></path>
    </g>
  </g>
</svg>