<svg xmlns='http://www.w3.org/2000/svg' width="24px" height="24px" viewBox="0 0 24 24">
  <g id="link" stroke="none" fill="none" fill-rule="evenodd">
    <path d="M16.3159981,10.2408946 C16.3101813,10.2245297 16.3329471,10.1991842 16.3570167,10.1752357 C16.7245798,9.80922201 17.0946501,9.44560322 17.4596056,9.07699515 C18.8102118,7.71362426 18.3893947,5.42504114 16.6440469,4.63404055 C15.5918036,4.15716509 14.3652562,4.36861081 13.5456859,5.17916938 C12.4436988,6.2689281 11.3373992,7.3546954 10.252361,8.46091875 C9.48333689,9.24493434 9.25266976,10.1943945 9.58994522,11.2357572 C9.92712039,12.2770201 10.6769891,12.8939946 11.7548064,13.1095315 C11.9044391,13.1394672 12.0590864,13.1438578 12.2157395,13.160522 L12.2157395,14.5384615 C12.0549745,14.5280838 11.8955133,14.5257888 11.7382585,14.5063306 C10.6712726,14.3741146 9.7746795,13.9103111 9.07345143,13.0999521 C8.30272236,12.2092657 7.97006024,11.1681025 8.0793764,9.99651961 C8.17284673,8.99497137 8.59256062,8.1435007 9.30823045,7.43342625 C10.3924662,6.35753773 11.4703838,5.27556228 12.5579291,4.20306647 C13.4173146,3.35568701 14.4638413,2.95714326 15.6682246,3.00364336 C16.6975015,3.04345782 17.5992094,3.42244359 18.3464706,4.13171976 C19.2364445,4.97650479 19.675715,6.02205849 19.6488372,7.24333465 C19.6253693,8.31054183 19.2342381,9.24194077 18.4874784,10.0132836 C18.0222328,10.4940507 17.5407403,10.9592512 17.066268,11.4312372 C17.0509236,11.4464046 17.0333729,11.4594765 17.0346766,11.4583789 C16.7946825,11.0518523 16.5553905,10.6463235 16.3159981,10.2408946 Z M7.53165045,13.9379083 C7.2065543,14.2599938 6.88215943,14.5825781 6.5587664,14.9064597 C5.4790865,15.9878607 5.46716464,17.6933773 6.53111569,18.7877496 C7.58625058,19.8732415 9.35118708,19.8998824 10.4397833,18.8312531 C11.5520229,17.7395748 12.6614574,16.6447036 13.7501538,15.5299765 C14.5141548,14.7477118 14.737264,13.7975197 14.4015483,12.7614181 C14.0655321,11.7243188 13.318362,11.1101812 12.2463963,10.8905684 C12.202616,10.8815883 12.1581344,10.8767989 12.1094451,10.8692157 C12.1094451,10.0312049 12.1094451,9.57736389 12.1094451,9.5076927 C12.4927692,9.53851604 12.6201984,9.53827155 12.8832641,9.61878962 C14.522098,10.1203971 15.5310195,11.1966893 15.8566166,12.8558087 C16.1303185,14.2510137 15.7326893,15.4929586 14.7335572,16.5133949 C13.6432578,17.6266254 12.5327213,18.7202992 11.4224854,19.813973 C10.6971553,20.5285878 9.81543841,20.9146314 8.79747169,20.9889665 C6.71525336,21.1410291 4.81526921,19.7054139 4.4326676,17.665539 C4.16838296,16.2560657 4.53866197,15.0140211 5.5307813,13.9708352 C5.98932216,13.4887048 6.4720073,13.0296232 6.9438726,12.5601646 C6.95489281,12.5490892 7.41804212,13.3730613 7.72410337,13.7641936 C7.6592845,13.8224644 7.59266233,13.8774424 7.53165045,13.9379083 Z" fill="#666666"></path>
  </g>
</svg>